<svg data-v-423bf9ae="" xmlns="http://www.w3.org/2000/svg" viewBox="0 0 340 90" class="iconLeft"><!----><!----><!----><g data-v-423bf9ae="" id="9df9e72f-7058-4f41-95a4-c399d458d024" fill="#000" transform="matrix(6.54307587140309,0,0,6.54307587140309,90.87514442962143,-38.78408588696031)"><path d="M4.31 8.22L4.31 8.22Q6.09 8.22 6.96 8.85L6.96 8.85L6.96 8.85Q7.83 9.48 7.83 10.75L7.83 10.75L7.83 10.75Q7.83 11.40 7.64 11.93L7.64 11.93L7.64 11.93Q7.46 12.46 7.14 12.77L7.14 12.77L7.14 12.87L7.14 12.87Q7.57 13.13 7.85 13.66L7.85 13.66L7.85 13.66Q8.13 14.20 8.13 14.78L8.13 14.78L8.13 14.78Q8.13 16.16 7.23 16.77L7.23 16.77L7.23 16.77Q6.33 17.39 4.31 17.39L4.31 17.39L4.31 17.39Q2.30 17.39 1.39 16.77L1.39 16.77L1.39 16.77Q0.49 16.16 0.49 14.78L0.49 14.78L0.49 14.78Q0.49 14.20 0.76 13.66L0.76 13.66L0.76 13.66Q1.04 13.13 1.47 12.87L1.47 12.87L1.47 12.77L1.47 12.77Q1.16 12.45 0.98 11.91L0.98 11.91L0.98 11.91Q0.80 11.38 0.80 10.75L0.80 10.75L0.80 10.75Q0.80 9.48 1.67 8.85L1.67 8.85L1.67 8.85Q2.53 8.22 4.31 8.22L4.31 8.22ZM4.61 11.73L4.61 11.73Q4.76 11.79 4.83 11.79L4.83 11.79L4.83 11.79Q4.96 11.79 5.03 11.72L5.03 11.72L5.03 11.72Q5.11 11.65 5.11 11.54L5.11 11.54L5.11 10.42L4.12 10.42L4.12 10.42Q3.77 10.42 3.65 10.50L3.65 10.50L3.65 10.50Q3.53 10.58 3.51 10.86L3.51 10.86L3.50 11.26L4.61 11.73ZM3.95 13.90L3.95 13.90Q3.74 13.82 3.65 13.82L3.65 13.82L3.65 13.82Q3.50 13.82 3.50 14.06L3.50 14.06L3.50 15.19L4.52 15.19L4.52 15.19Q4.89 15.19 5.00 15.10L5.00 15.10L5.00 15.10Q5.12 15.01 5.12 14.74L5.12 14.74L5.12 14.36L3.95 13.90ZM12.64 17.18L9.77 17.18L12.28 10.74L8.90 10.74L8.69 8.43L15.34 8.43L15.34 10.18L12.64 17.18ZM16.32 17.18L16.32 8.43L19.12 8.43L19.12 14.87L21.78 14.87L21.78 17.18L16.32 17.18ZM29.48 10.18L29.48 17.18L28.08 17.18L27.38 16.48L27.38 16.48Q26.15 17.39 24.58 17.39L24.58 17.39L24.58 17.39Q23.49 17.39 22.99 16.91L22.99 16.91L22.99 16.91Q22.48 16.42 22.48 15.36L22.48 15.36L22.48 10.18L25.28 10.18L25.28 15.50L26.14 15.50L26.14 15.50Q26.43 15.50 26.56 15.41L26.56 15.41L26.56 15.41Q26.68 15.32 26.68 15.11L26.68 15.11L26.68 10.18L29.48 10.18ZM38.01 10.18L35.78 13.83L38.01 17.18L34.90 17.18L33.98 15.79L33.22 17.18L30.23 17.18L32.45 13.52L30.23 10.18L33.33 10.18L34.26 11.56L35.01 10.18L38.01 10.18Z"></path></g><!----><g data-v-423bf9ae="" id="0c8fae73-08ce-403a-ab66-123020c46f2c" transform="matrix(2.8125,0,0,2.8125,-7.170000076293945,0)" stroke="none" fill="rgb(255, 217, 0)"><path d="M2.83 18.247l26.34-9.124L2.83 0zM29.17 32V13.753L2.83 22.877z"></path></g><!----></svg>