<?xml version="1.0" standalone="no"?>
<!DOCTYPE svg PUBLIC "-//W3C//DTD SVG 20010904//EN"
 "http://www.w3.org/TR/2001/REC-SVG-20010904/DTD/svg10.dtd">
<svg version="1.0" xmlns="http://www.w3.org/2000/svg"
 width="932.000000pt" height="240.000000pt" viewBox="0 0 932.000000 240.000000"
 preserveAspectRatio="xMidYMid meet">
<metadata>
Created by potrace 1.16, written by Peter Selinger 2001-2019
</metadata>
<g transform="translate(0.000000,240.000000) scale(0.100000,-0.100000)"
fill="#000000" stroke="none">
<path d="M830 2324 c-79 -8 -213 -34 -280 -56 -104 -33 -180 -78 -250 -148
-71 -70 -109 -138 -137 -242 -20 -76 -22 -273 -3 -363 19 -93 66 -206 112
-270 l41 -58 -29 -20 c-87 -62 -167 -187 -199 -312 -22 -86 -20 -244 5 -339
63 -248 235 -377 575 -432 136 -23 521 -26 660 -6 424 60 610 232 631 582 7
119 -11 214 -62 317 -36 72 -124 177 -168 201 -19 9 -18 12 12 46 40 46 83
130 112 221 31 96 39 328 16 429 -55 234 -233 376 -542 431 -87 16 -400 28
-494 19z m370 -691 c0 -157 -8 -183 -54 -183 -12 0 -88 29 -171 64 l-150 63
-3 56 c-4 76 17 123 60 136 18 5 97 10 176 10 l142 1 0 -147z m-161 -759 l171
-67 0 -54 c0 -29 -6 -69 -14 -88 -20 -46 -57 -55 -233 -55 l-143 0 0 153 c0
152 5 177 36 177 7 0 89 -30 183 -66z"/>
<path d="M2090 2255 c0 -30 37 -451 46 -512 l5 -43 413 -2 412 -3 -308 -790
c-169 -434 -308 -791 -308 -792 0 -2 162 -3 359 -3 l359 0 46 118 c25 64 174
450 331 857 l285 740 0 227 0 228 -820 0 -820 0 0 -25z"/>
<path d="M3970 1195 l0 -1085 675 0 675 0 0 290 0 290 -325 0 -325 0 0 795 0
795 -350 0 -350 0 0 -1085z"/>
<path d="M5482 1143 c4 -628 6 -715 21 -766 62 -213 183 -298 448 -314 240
-14 490 51 689 180 l55 36 85 -84 85 -85 178 0 177 0 0 870 0 870 -350 0 -350
0 0 -620 c0 -432 -3 -626 -11 -643 -18 -39 -50 -47 -194 -47 l-135 0 0 655 0
655 -351 0 -350 0 3 -707z"/>
<path d="M7390 1845 c0 -3 122 -188 271 -411 160 -240 269 -413 266 -423 -2
-9 -119 -205 -259 -436 -140 -231 -260 -430 -267 -442 l-12 -23 375 0 375 0
86 160 c48 88 91 162 95 165 4 3 57 -69 116 -160 l108 -165 388 0 c213 0 388
2 388 5 0 3 -121 187 -270 410 -148 223 -271 408 -272 413 -2 5 120 209 270
455 149 245 272 448 272 452 0 3 -168 5 -374 5 l-374 0 -89 -165 c-48 -90 -90
-165 -93 -164 -3 0 -54 74 -115 164 l-110 164 -387 1 c-214 0 -388 -2 -388 -5z"/>
</g>
</svg>
